<svg width="24" height="24" viewBox="0 0 24 24" fill="none" xmlns="http://www.w3.org/2000/svg">
<path d="M23 8.56254C23 12.7392 19.6141 16.125 15.4375 16.125C14.9554 16.125 14.484 16.0794 14.027 15.9931L12.9952 17.1539C12.8984 17.2627 12.7797 17.3499 12.6469 17.4095C12.514 17.4692 12.3701 17.5 12.2244 17.5H10.625V19.2188C10.625 19.7883 10.1633 20.25 9.59375 20.25H7.875V21.9688C7.875 22.5383 7.4133 23 6.84375 23H2.03125C1.4617 23 1 22.5383 1 21.9688V18.6147C1 18.3412 1.10867 18.0788 1.30203 17.8854L8.25446 10.933C8.00855 10.1873 7.875 9.39055 7.875 8.5625C7.875 4.38585 11.2608 1.00004 15.4375 1C19.6264 0.999957 23 4.37352 23 8.56254ZM15.4375 6.5C15.4375 7.6391 16.3609 8.5625 17.5 8.5625C18.6391 8.5625 19.5625 7.6391 19.5625 6.5C19.5625 5.3609 18.6391 4.4375 17.5 4.4375C16.3609 4.4375 15.4375 5.3609 15.4375 6.5Z" fill="white"/>
</svg>
