<svg width="24" height="24" viewBox="0 0 24 24" fill="none" xmlns="http://www.w3.org/2000/svg">
<path d="M9.7472 21.734C10.4867 21.9105 11.2437 21.9995 12.0037 21.9995C12.7621 21.9987 13.5177 21.9091 14.2552 21.7325C14.4491 21.6858 14.6239 21.5805 14.7557 21.4309C14.8876 21.2813 14.9702 21.0947 14.9922 20.8965L15.1612 19.361C15.1898 19.0864 15.3154 18.831 15.5155 18.6408C15.7156 18.4506 15.977 18.3381 16.2527 18.3235C16.4362 18.3155 16.6187 18.35 16.7867 18.4235L18.1902 19.039C18.3122 19.0939 18.4444 19.1227 18.5782 19.1235C18.712 19.1244 18.8445 19.0973 18.9672 19.044C19.0907 18.9915 19.2012 18.9135 19.2922 18.815C20.3242 17.7026 21.0946 16.3738 21.5472 14.9255C21.6065 14.7334 21.6046 14.5276 21.5419 14.3365C21.4792 14.1455 21.3588 13.9786 21.1972 13.859L19.9502 12.939C19.8017 12.8311 19.6808 12.6896 19.5974 12.5261C19.5141 12.3625 19.4706 12.1816 19.4706 11.998C19.4706 11.8144 19.5141 11.6335 19.5974 11.4699C19.6808 11.3064 19.8017 11.1649 19.9502 11.057L21.1932 10.139C21.3552 10.0191 21.4759 9.85183 21.5387 9.6603C21.6014 9.46876 21.603 9.26247 21.5432 9.06999C21.0905 7.62152 20.3191 6.29284 19.2857 5.18149C19.1488 5.03514 18.9698 4.9349 18.7735 4.8946C18.5772 4.8543 18.3732 4.87592 18.1897 4.95649L16.7867 5.57449C16.6417 5.63999 16.4837 5.67449 16.3237 5.67449C16.0357 5.67392 15.758 5.56706 15.544 5.3744C15.3299 5.18174 15.1945 4.91684 15.1637 4.63049L14.9937 3.10049C14.9719 2.89968 14.8879 2.71069 14.7535 2.55998C14.619 2.40927 14.4407 2.30438 14.2437 2.25999C13.5099 2.09617 12.761 2.0092 12.0092 2.00049C11.2522 2.00922 10.4982 2.09636 9.7592 2.26049C9.56238 2.30463 9.38428 2.40918 9.2498 2.55953C9.11533 2.70987 9.03121 2.89848 9.0092 3.09899L8.8392 4.62999C8.80713 4.9168 8.6704 5.1817 8.4552 5.37399C8.23558 5.56056 7.95877 5.66641 7.6707 5.67399C7.51182 5.67388 7.35468 5.64085 7.2092 5.57699L5.8092 4.95899C5.6251 4.8777 5.42024 4.85578 5.2231 4.89629C5.02597 4.93679 4.84635 5.0377 4.7092 5.18499C3.67723 6.29659 2.90678 7.6248 2.4542 9.07249C2.39441 9.26489 2.39599 9.47112 2.4587 9.66259C2.52142 9.85405 2.64217 10.0212 2.8042 10.141L4.0482 11.059C4.27043 11.2232 4.42748 11.4607 4.49161 11.7295C4.55574 11.9983 4.52284 12.2811 4.3987 12.528C4.31615 12.6917 4.19626 12.8337 4.0487 12.9425L2.8037 13.862C2.64181 13.9816 2.52115 14.1486 2.45843 14.3399C2.39572 14.5312 2.39407 14.7372 2.4537 14.9295C2.90548 16.3786 3.676 17.7081 4.7087 18.8205C4.84513 18.9677 5.02409 19.0687 5.22064 19.1094C5.41719 19.1501 5.62154 19.1285 5.8052 19.0475L7.2142 18.429C7.3597 18.365 7.5167 18.332 7.6757 18.332H7.6797C7.96662 18.3324 8.24338 18.4382 8.45729 18.6295C8.67119 18.8207 8.8073 19.0839 8.8397 19.369L9.0087 20.8975C9.03071 21.096 9.11345 21.2828 9.24563 21.4326C9.3778 21.5823 9.55297 21.6875 9.7472 21.734ZM12.0002 15.125C11.1714 15.125 10.3765 14.7957 9.79049 14.2097C9.20444 13.6236 8.8752 12.8288 8.8752 12C8.8752 11.1712 9.20444 10.3763 9.79049 9.79028C10.3765 9.20423 11.1714 8.87499 12.0002 8.87499C12.829 8.87499 13.6239 9.20423 14.2099 9.79028C14.796 10.3763 15.1252 11.1712 15.1252 12C15.1252 12.8288 14.796 13.6236 14.2099 14.2097C13.6239 14.7957 12.829 15.125 12.0002 15.125Z" fill="white"/>
</svg>
