<svg width="24" height="22" viewBox="0 0 24 22" fill="none" xmlns="http://www.w3.org/2000/svg">
<g clip-path="url(#clip0_96_93)">
<path d="M11.6822 6.2878L4.00014 12.7279V19.6786C4.00014 19.8585 4.07037 20.0311 4.1954 20.1584C4.32042 20.2856 4.48999 20.3571 4.6668 20.3571L9.33597 20.3448C9.5122 20.3439 9.68091 20.272 9.80522 20.1449C9.92952 20.0177 9.9993 19.8456 9.9993 19.6663V15.6071C9.9993 15.4272 10.0695 15.2546 10.1946 15.1273C10.3196 15.0001 10.4892 14.9286 10.666 14.9286H13.3326C13.5094 14.9286 13.679 15.0001 13.804 15.1273C13.9291 15.2546 13.9993 15.4272 13.9993 15.6071V19.6633C13.999 19.7526 14.0161 19.8411 14.0494 19.9236C14.0828 20.0062 14.1319 20.0813 14.1938 20.1445C14.2558 20.2077 14.3293 20.2579 14.4104 20.2921C14.4914 20.3264 14.5782 20.344 14.666 20.344L19.3335 20.3571C19.5103 20.3571 19.6798 20.2856 19.8049 20.1584C19.9299 20.0311 20.0001 19.8585 20.0001 19.6786V12.7232L12.3197 6.2878C12.2294 6.21372 12.1169 6.17332 12.001 6.17332C11.885 6.17332 11.7725 6.21372 11.6822 6.2878ZM23.8168 10.665L20.3335 7.74249V1.86818C20.3335 1.73321 20.2808 1.60376 20.187 1.50831C20.0933 1.41287 19.9661 1.35925 19.8335 1.35925H17.5001C17.3675 1.35925 17.2403 1.41287 17.1466 1.50831C17.0528 1.60376 17.0001 1.73321 17.0001 1.86818V4.94762L13.2697 1.82365C12.9117 1.5238 12.4625 1.35985 11.9989 1.35985C11.5353 1.35985 11.086 1.5238 10.7281 1.82365L0.180969 10.665C0.130339 10.7076 0.0884508 10.7599 0.0576975 10.819C0.0269442 10.8781 0.0079287 10.9428 0.00173762 11.0093C-0.00445347 11.0759 0.00230116 11.143 0.0216156 11.2069C0.04093 11.2708 0.0724256 11.3302 0.114303 11.3818L1.1768 12.6965C1.21857 12.7482 1.26993 12.791 1.32797 12.8224C1.386 12.8539 1.44956 12.8734 1.51501 12.8798C1.58045 12.8862 1.6465 12.8794 1.70937 12.8598C1.77224 12.8403 1.83069 12.8082 1.88139 12.7656L11.6822 4.54896C11.7725 4.47488 11.885 4.43448 12.001 4.43448C12.1169 4.43448 12.2294 4.47488 12.3197 4.54896L22.121 12.7656C22.1716 12.8082 22.2299 12.8403 22.2927 12.86C22.3555 12.8796 22.4215 12.8865 22.4869 12.8802C22.5523 12.8739 22.6158 12.8545 22.6738 12.8232C22.7319 12.7919 22.7833 12.7493 22.8251 12.6978L23.8876 11.383C23.9295 11.3312 23.9608 11.2715 23.9799 11.2073C23.999 11.1431 24.0054 11.0758 23.9989 11.009C23.9923 10.9423 23.9728 10.8776 23.9416 10.8185C23.9103 10.7595 23.8679 10.7073 23.8168 10.665Z" fill="white"/>
</g>
<defs>
<clipPath id="clip0_96_93">
<rect width="24" height="21.7143" fill="white"/>
</clipPath>
</defs>
</svg>
